<?xml version="1.0" encoding="UTF-8" standalone="no"?>
<!-- Created with Inkscape (http://www.inkscape.org/) -->

<svg
   version="1.1"
   id="svg2"
   width="1821.3333"
   height="866.66669"
   viewBox="0 0 1821.3333 866.66669"
   sodipodi:docname="chaox-banner-fp.svg"
   inkscape:version="1.3.2 (091e20ef0f, 2023-11-25, custom)"
   xmlns:inkscape="http://www.inkscape.org/namespaces/inkscape"
   xmlns:sodipodi="http://sodipodi.sourceforge.net/DTD/sodipodi-0.dtd"
   xmlns="http://www.w3.org/2000/svg"
   xmlns:svg="http://www.w3.org/2000/svg">
  <defs
     id="defs6" />
  <sodipodi:namedview
     id="namedview4"
     pagecolor="#ffffff"
     bordercolor="#cccccc"
     borderopacity="1"
     inkscape:pageshadow="0"
     inkscape:pageopacity="1"
     inkscape:pagecheckerboard="0"
     showgrid="false"
     inkscape:zoom="0.67587851"
     inkscape:cx="787.86348"
     inkscape:cy="461.62142"
     inkscape:window-width="1896"
     inkscape:window-height="1037"
     inkscape:window-x="0"
     inkscape:window-y="0"
     inkscape:window-maximized="1"
     inkscape:current-layer="g8"
     inkscape:showpageshadow="2"
     inkscape:deskcolor="#d1d1d1" />
  <g
     inkscape:groupmode="layer"
     inkscape:label="Image"
     id="g8">
    <path
       style="fill:#cdd6f4;stroke-width:1.33333;fill-opacity:1"
       d="M 0,433.33334 V 0 H 910.66666 1821.3333 V 433.33334 866.66666 H 910.66666 0 Z M 329.85786,671.5491 c 4.05322,-2.65578 4.2812,-3.88622 1.2767,-6.89071 -1.39005,-1.39005 -3.22906,-1.88395 -5,-1.3428 -1.54066,0.47077 -6.70122,1.1864 -11.46789,1.59028 -7.47425,0.63328 -9.12528,0.35241 -12,-2.04141 l -3.33333,-2.77572 17.14838,-0.0444 17.14839,-0.0444 -0.93739,-5 c -2.07024,-11.04258 -10.03796,-17.66659 -21.25041,-17.66659 -12.93029,0 -22.10897,7.56827 -22.10897,18.22991 0,7.7474 3.21414,13.08122 9.95656,16.5227 4.45169,2.27226 7.24488,2.65807 16.23462,2.2424 7.29026,-0.33709 11.99982,-1.25028 14.33334,-2.77926 z m -27.37682,-22.26011 c 3.53031,-2.94103 10.32367,-3.41351 15.45623,-1.07495 5.92609,2.70011 3.71671,3.78727 -7.60393,3.74162 l -11,-0.0444 3.1477,-2.62231 z m 118.8731,22.90888 c 18.64252,-9.90665 10.73012,-34.86452 -11.05312,-34.86452 -7.4504,0 -15.92592,3.83723 -19.06824,8.63301 -3.32456,5.07392 -3.73324,12.66931 -0.96926,18.01356 4.96936,9.60843 20.66624,13.75747 31.09062,8.21795 z m -19.9097,-9.40085 c -2.2347,-1.71791 -3.22221,-3.80099 -3.22221,-6.797 0,-5.76572 4.57716,-9.26438 12.17171,-9.30368 6.45088,-0.0334 12.27273,4.38001 12.27273,9.30368 0,1.53333 -1.47273,4.2606 -3.27273,6.0606 -4.10428,4.10429 -13.08892,4.47289 -17.9495,0.7364 z m 71.43992,10.63493 c 7.39671,0.0575 8.31353,-0.23805 9.17697,-2.95853 0.72226,-2.27562 0.25664,-3.48898 -1.88436,-4.91055 -2.56796,-1.70507 -2.84364,-3.10648 -2.84364,-14.45577 V 638.53944 L 469,638.93639 c -7.55016,0.35965 -8.37432,0.68613 -8.76949,3.47396 -0.33983,2.39737 0.47006,3.41908 3.66666,4.62565 3.78964,1.43044 4.10283,2.03288 4.10283,7.89226 0,5.24593 -0.56047,6.71085 -3.23897,8.46586 -1.81602,1.18991 -5.18414,1.93562 -7.66667,1.69742 l -4.42769,-0.42486 -0.38161,-13 -0.38162,-13 h -7.1218 c -7.52472,0 -10.79117,2.01975 -9.34813,5.78024 0.44707,1.16504 1.8908,2.46038 3.20829,2.87854 1.93531,0.61424 2.49799,2.5749 2.92924,10.20696 0.4925,8.71596 0.87679,9.75314 4.96818,13.4088 4.04369,3.61304 5.03764,3.89449 11.28093,3.19448 3.76558,-0.42222 10.54448,-0.73891 15.06421,-0.70375 z m 50.44897,-1.50883 c 2.84676,-1.39422 4,-2.91489 4,-5.2744 0,-3.66276 0.2146,-3.63806 -16.33333,-1.88013 l -8.33333,0.88527 v -9.49359 -9.49359 h 9.37517 c 7.44971,0 9.54709,-0.44798 10.2122,-2.18122 1.70903,-4.45367 -1.42851,-6.46599 -10.72656,-6.8797 l -8.86081,-0.39425 v -4.55884 c 0,-3.13711 -0.80151,-4.98779 -2.57008,-5.93429 -3.99592,-2.13856 -6.7013,-0.24212 -7.5909,5.32114 -0.61042,3.81739 -1.56718,5.27116 -3.84541,5.84296 -5.81041,1.45832 -5.11295,8.7842 0.83631,8.7842 2.16374,0 2.50341,1.05847 2.50341,7.80104 0,16.00728 4.24235,20.51331 18.66667,19.82688 4.76666,-0.22684 10.46666,-1.294 12.66666,-2.37148 z m 50.60218,0.85644 c 5.39781,-2.25536 7.72118,-5.86656 5.88518,-9.1473 -1.60876,-2.8747 -4.29993,-2.92 -8.53702,-0.14376 -4.69715,3.07769 -20.18034,2.06934 -22.77819,-1.48344 -4.8414,-6.621 0.83716,-15.33838 9.99153,-15.33838 7.04762,0 9.47184,1.0778 10.90546,4.84851 1.28738,3.38607 5.06493,4.15076 7.6642,1.55149 1.74954,-1.74954 2.15054,-11.47057 0.57529,-13.94629 -0.65503,-1.02945 -5.45945,-1.47511 -14.37405,-1.33333 -10.40216,0.16544 -14.20896,0.74981 -17.05936,2.61873 -11.96908,7.84779 -11.61804,25.95207 0.6201,31.98101 5.64107,2.77899 20.86778,2.99962 27.10686,0.39276 z M 629.665,671.4828 c 1.65569,-2.45916 0.49792,-5.40426 -2.67279,-6.79896 C 624.34533,663.51958 624,662.3938 624,654.92952 c 0,-9.93004 -1.26905,-12.80496 -6.94893,-15.74213 -3.18318,-1.64609 -6.59328,-2.02019 -14.0518,-1.54152 -11.05662,0.70956 -15.45102,3.23871 -12.82136,7.37916 1.23889,1.95065 3.14637,2.23381 12.31073,1.82745 13.03408,-0.57794 15.03335,1.9035 2.19239,2.72115 -17.29036,1.10097 -25.72264,15.01185 -13.64524,22.51083 3.93214,2.4415 5.71465,2.5924 20.96421,1.77476 9.75805,-0.5232 17.08049,-1.50827 17.665,-2.37642 z m -33.03443,-7.54118 c -2.28249,-3.69315 6.43943,-7.26094 14.0361,-5.7416 5.04957,1.00992 5.06908,2.51201 0.0663,5.09909 -4.50201,2.32808 -12.82617,2.70733 -14.1023,0.64251 z m 71.9716,8.83794 c 12.381,-5.17312 8.30139,-19.19844 -6.22257,-21.39257 -10.811,-1.63321 -13.06756,-2.27384 -12.31255,-3.49547 1.45569,-2.35536 12.04076,-1.35565 15.26628,1.44183 5.24716,4.55084 9.34869,2.52493 9.31292,-4.6 -0.0336,-6.70043 -0.93853,-7.12632 -14.70707,-6.92211 -14.15941,0.21002 -19.2321,2.24064 -20.75501,8.30838 -1.88089,7.4941 3.66327,11.89693 17.31353,13.7493 4.12506,0.55979 7.86068,1.37836 8.30138,1.81907 1.94276,1.94275 -1.45999,3.64536 -7.2854,3.64536 -4.6298,0 -7.52256,-0.88063 -10.77496,-3.28017 -3.42775,-2.52891 -5.01395,-2.97623 -6.92571,-1.9531 -2.55056,1.36503 -3.43168,8.33923 -1.44761,11.45814 1.97388,3.10288 23.63916,3.978 30.23677,1.22134 z m 52.06449,-0.85644 c 2.84676,-1.39422 4,-2.91489 4,-5.2744 0,-3.66276 0.2146,-3.63806 -16.33333,-1.88013 L 700,665.65386 v -9.49359 -9.49359 h 9.37517 c 7.44971,0 9.54709,-0.44798 10.2122,-2.18122 1.70903,-4.45367 -1.42851,-6.46599 -10.72656,-6.8797 L 700,637.21151 v -4.55884 c 0,-3.13711 -0.80151,-4.98779 -2.57008,-5.93429 -3.99592,-2.13856 -6.7013,-0.24212 -7.5909,5.32114 -0.61042,3.81739 -1.56718,5.27116 -3.84541,5.84296 -5.81041,1.45832 -5.11295,8.7842 0.83631,8.7842 2.16374,0 2.50341,1.05847 2.50341,7.80104 0,16.00728 4.24235,20.51331 18.66667,19.82688 4.76666,-0.22684 10.46666,-1.294 12.66666,-2.37148 z m 46.60218,0.85644 c 12.381,-5.17312 8.30138,-19.19844 -6.22258,-21.39257 -10.811,-1.63321 -13.06756,-2.27384 -12.31254,-3.49547 1.45569,-2.35536 12.04076,-1.35565 15.26628,1.44183 5.24716,4.55084 9.34869,2.52493 9.31292,-4.6 -0.0336,-6.70043 -0.93854,-7.12632 -14.70707,-6.92211 -14.15941,0.21002 -19.23211,2.24064 -20.75501,8.30838 -1.8809,7.4941 3.66326,11.89693 17.31353,13.7493 4.12505,0.55979 7.86068,1.37836 8.30137,1.81907 1.94276,1.94275 -1.45998,3.64536 -7.2854,3.64536 -4.6298,0 -7.52256,-0.88063 -10.77496,-3.28017 -3.42774,-2.52891 -5.01394,-2.97623 -6.9257,-1.9531 -2.55056,1.36503 -3.43168,8.33923 -1.44762,11.45814 1.97388,3.10288 23.63916,3.978 30.23678,1.22134 z m 98.08529,-0.58169 c 18.64252,-9.90665 10.73012,-34.86452 -11.05312,-34.86452 -7.4504,0 -15.92592,3.83723 -19.06824,8.63301 -3.32456,5.07392 -3.73324,12.66931 -0.96926,18.01356 4.96936,9.60843 20.66624,13.75747 31.09062,8.21795 z m -19.9097,-9.40085 c -2.2347,-1.71791 -3.22221,-3.80099 -3.22221,-6.797 0,-5.76572 4.57716,-9.26438 12.17171,-9.30368 6.45088,-0.0334 12.27273,4.38001 12.27273,9.30368 0,1.53333 -1.47273,4.2606 -3.27273,6.0606 -4.10428,4.10429 -13.08892,4.47289 -17.9495,0.7364 z m 273.74677,8.75208 c 4.0532,-2.65578 4.2812,-3.88622 1.2767,-6.89071 -1.3901,-1.39005 -3.2291,-1.88395 -5,-1.3428 -1.5407,0.47077 -6.7013,1.1864 -11.4679,1.59028 -7.4743,0.63328 -9.1253,0.35241 -12,-2.04141 l -3.3334,-2.77572 17.1484,-0.0444 17.1484,-0.0444 -0.9374,-5 c -2.0702,-11.04258 -10.0379,-17.66659 -21.2504,-17.66659 -12.9303,0 -22.109,7.56827 -22.109,18.22991 0,7.7474 3.2142,13.08122 9.9566,16.5227 4.4517,2.27226 7.2449,2.65807 16.2346,2.2424 7.2903,-0.33709 11.9998,-1.25028 14.3334,-2.77926 z m -27.3768,-22.26011 c 3.5303,-2.94103 10.3236,-3.41351 15.4562,-1.07495 5.9261,2.70011 3.7167,3.78727 -7.604,3.74162 l -11,-0.0444 3.1478,-2.62231 z m 220.8522,22.63413 c 2.8468,-1.39422 4,-2.91489 4,-5.2744 0,-3.66276 0.2146,-3.63806 -16.3333,-1.88013 L 1292,665.65386 v -9.49359 -9.49359 h 9.3751 c 7.4498,0 9.5471,-0.44798 10.2122,-2.18122 1.7091,-4.45367 -1.4285,-6.46599 -10.7265,-6.8797 L 1292,637.21151 v -4.55884 c 0,-3.13711 -0.8015,-4.98779 -2.5701,-5.93429 -3.9959,-2.13856 -6.7013,-0.24212 -7.5909,5.32114 -0.6104,3.81739 -1.5672,5.27116 -3.8454,5.84296 -5.8104,1.45832 -5.113,8.7842 0.8363,8.7842 2.1637,0 2.5034,1.05847 2.5034,7.80104 0,16.00728 4.2424,20.51331 18.6667,19.82688 4.7666,-0.22684 10.4666,-1.294 12.6666,-2.37148 z m 53.1912,-0.37402 c 4.0532,-2.65578 4.2812,-3.88622 1.2767,-6.89071 -1.39,-1.39005 -3.2291,-1.88395 -5,-1.3428 -1.5407,0.47077 -6.7012,1.1864 -11.4679,1.59028 -7.4742,0.63328 -9.1253,0.35241 -12,-2.04141 l -3.3333,-2.77572 17.1484,-0.0444 17.1484,-0.0444 -0.9375,-5 c -2.0701,-11.04258 -10.0378,-17.66659 -21.2504,-17.66659 -12.9302,0 -22.1089,7.56827 -22.1089,18.22991 0,7.7474 3.2142,13.08122 9.9565,16.5227 4.4518,2.27226 7.245,2.65807 16.2347,2.2424 7.2903,-0.33709 11.9997,-1.25028 14.3333,-2.77926 z m -27.3768,-22.26011 c 3.5303,-2.94103 10.3236,-3.41351 15.4562,-1.07495 5.9261,2.70011 3.7168,3.78727 -7.6039,3.74162 l -11,-0.0444 3.1477,-2.62231 z m 175.3768,22.26011 c 4.0532,-2.65578 4.2812,-3.88622 1.2767,-6.89071 -1.39,-1.39005 -3.2291,-1.88395 -5,-1.3428 -1.5407,0.47077 -6.7012,1.1864 -11.4679,1.59028 -7.4742,0.63328 -9.1253,0.35241 -12,-2.04141 l -3.3333,-2.77572 17.1484,-0.0444 17.1484,-0.0444 -0.9375,-5 c -2.0701,-11.04266 -10.0378,-17.66667 -21.2504,-17.66667 -12.9302,0 -22.1089,7.56827 -22.1089,18.22991 0,7.7474 3.2141,13.08122 9.9565,16.5227 4.4518,2.27226 7.245,2.65807 16.2347,2.2424 7.2903,-0.33709 11.9997,-1.25028 14.3333,-2.77926 z m -27.3768,-22.26011 c 3.5303,-2.94103 10.3236,-3.41351 15.4562,-1.07495 5.9261,2.70011 3.7168,3.78727 -7.6039,3.74162 l -11,-0.0444 3.1477,-2.62231 z m 72.8523,22.63413 c 2.8468,-1.39422 4,-2.91489 4,-5.2744 0,-3.66276 0.2147,-3.63806 -16.3333,-1.88013 l -8.3334,0.88527 v -9.49359 -9.49359 h 9.3752 c 7.4498,0 9.5471,-0.44798 10.2122,-2.18122 1.709,-4.45367 -1.4284,-6.46599 -10.7266,-6.8797 l -8.8608,-0.39425 v -4.55884 c 0,-3.13711 -0.8014,-4.98779 -2.5701,-5.93429 -3.9959,-2.13856 -6.7012,-0.24212 -7.5908,5.32114 -0.6104,3.81739 -1.5672,5.27116 -3.8455,5.84296 -5.8104,1.45832 -5.1129,8.7842 0.8363,8.7842 2.1637,0 2.5035,1.05847 2.5035,7.80104 0,16.00728 4.2424,20.51331 18.6666,19.82688 4.7667,-0.22684 10.4667,-1.294 12.6667,-2.37148 z m -1331.74592,-0.771 c 1.28957,-3.36056 -1.41269,-6.44129 -6.05517,-6.90325 l -4.19887,-0.41781 v -13.91552 -13.91552 h 4 c 3.76636,0 4,0.30628 4,5.24348 0,3.94002 0.6162,5.43906 2.47883,6.03024 5.54012,1.75836 6.8545,-0.30295 6.8545,-10.74971 v -9.85735 h -22 -22 v 9.17008 c 0,9.6868 1.6399,12.80702 6.26928,11.92852 1.7753,-0.33689 2.50378,-1.92237 2.80739,-6.1101 0.38259,-5.27718 0.67223,-5.65516 4.33333,-5.65516 h 3.92334 v 13.91552 13.91552 l -4.19887,0.41781 c -4.64248,0.46196 -7.34475,3.54269 -6.05517,6.90325 1.24716,3.25006 28.59425,3.25006 29.84141,0 z m 32.16364,-1.42146 c 0.26193,-1.8412 -0.60815,-3.57667 -2.33333,-4.65406 -2.1067,-1.31566 -2.75102,-3.10168 -2.75102,-7.62566 0,-7.22398 2.84138,-10.78426 8.60666,-10.78426 5.84905,0 7.39334,2.1257 7.39334,10.17682 0,5.69318 -0.46796,7.12534 -2.54349,7.78409 -1.39892,0.444 -2.90927,1.76048 -3.35633,2.92552 -1.52572,3.97593 1.80893,5.78024 10.68283,5.78024 6.9905,0 8.69532,-0.44624 9.8341,-2.57407 1.03988,-1.94302 0.86458,-3.08709 -0.71499,-4.66666 -1.15093,-1.15094 -2.64973,-2.0926 -3.33069,-2.0926 -0.68095,0 -1.2381,-3.56095 -1.2381,-7.9132 0,-10.11254 -1.57037,-14.11807 -6.54317,-16.6896 -4.45129,-2.30186 -13.05777,-2.70179 -16.12349,-0.74924 -1.67907,1.06938 -2.10697,-0.0572 -2.66667,-7.02042 l -0.66666,-8.29421 -6.17164,-0.39979 c -9.28884,-0.6017 -13.91054,5.14456 -6.74211,8.38263 2.75565,1.24476 2.91375,2.16459 2.91375,16.95308 0,14.27232 -0.23272,15.76147 -2.66667,17.06408 -2.62516,1.40495 -3.56803,5.32087 -1.72492,7.16397 0.51796,0.51796 5.16796,0.76796 10.33333,0.55556 8.52314,-0.35049 9.43022,-0.65769 9.80927,-3.32222 z m 659.98231,2.00269 c 3.89533,-3.89533 -0.65167,-7.73333 -9.16191,-7.73333 h -6.57143 v -8 -8 l 7,-0.0204 c 8.43567,-0.0247 10.7119,-1.25394 10.11666,-5.46371 -0.41286,-2.91993 -1.14466,-3.21548 -8.86842,-3.58171 -7.08986,-0.33617 -8.34888,-0.75701 -7.97782,-2.66666 0.35824,-1.84375 2.10418,-2.2977 9.34245,-2.42904 10.85129,-0.19691 13.0538,-0.95555 13.0538,-4.4963 0,-3.92148 -5.66013,-5.66133 -16.49408,-5.07009 -8.03653,0.43857 -9.55009,0.95256 -12.33333,4.18827 -1.74492,2.0286 -3.17259,5.11688 -3.17259,6.86286 0,2.6069 -0.7748,3.2492 -4.33333,3.59231 -3.62192,0.34921 -4.33334,0.96505 -4.33334,3.75115 0,2.6101 0.9402,3.61012 4.33334,4.60906 4.24341,1.24926 4.33333,1.43602 4.33333,9 0,6.91731 -0.28775,7.72426 -2.75432,7.72426 -3.69995,0 -7.91235,2.36746 -7.91235,4.4469 0,4.01686 3.32187,4.88643 18.66667,4.88643 10.25185,0 16.00613,-0.53947 17.06667,-1.6 z m 97.18737,-0.58123 c 1.2896,-3.36056 -1.4127,-6.44129 -6.0552,-6.90325 l -4.1989,-0.41781 v -13.91552 -13.91552 h 4 c 3.7664,0 4,0.30628 4,5.24348 0,3.94002 0.6162,5.43906 2.4789,6.03024 5.5401,1.75836 6.8545,-0.30295 6.8545,-10.74971 v -9.85735 h -22 -22.00001 v 9.17008 c 0,9.6868 1.63992,12.80702 6.26932,11.92852 1.7753,-0.33689 2.5037,-1.92237 2.8073,-6.1101 0.3826,-5.27718 0.6723,-5.65516 4.3334,-5.65516 h 3.9233 v 13.91552 13.91552 l -4.1989,0.41781 c -4.6424,0.46196 -7.3447,3.54269 -6.0551,6.90325 1.2471,3.25006 28.59419,3.25006 29.84139,0 z m 32.1636,-1.42146 c 0.262,-1.8412 -0.6081,-3.57667 -2.3333,-4.65406 -2.1067,-1.31566 -2.751,-3.10168 -2.751,-7.62566 0,-7.22398 2.8414,-10.78426 8.6066,-10.78426 5.8491,0 7.3934,2.1257 7.3934,10.17682 0,5.69318 -0.468,7.12534 -2.5435,7.78409 -1.3989,0.444 -2.9093,1.76048 -3.3563,2.92552 -1.5258,3.97593 1.8089,5.78024 10.6828,5.78024 6.9905,0 8.6953,-0.44624 9.8341,-2.57407 1.0399,-1.94302 0.8646,-3.08709 -0.715,-4.66666 -1.1509,-1.15094 -2.6497,-2.0926 -3.3307,-2.0926 -0.6809,0 -1.2381,-3.56095 -1.2381,-7.9132 0,-10.11254 -1.5704,-14.11807 -6.5432,-16.6896 -4.4513,-2.30186 -13.0577,-2.70179 -16.1235,-0.74924 -1.679,1.06938 -2.1069,-0.0572 -2.6666,-7.02042 l -0.6667,-8.29421 -6.1716,-0.39979 c -9.2889,-0.6017 -13.9106,5.14456 -6.7421,8.38263 2.7556,1.24476 2.9137,2.16459 2.9137,16.95308 0,14.27232 -0.2327,15.76147 -2.6667,17.06408 -2.6251,1.40495 -3.568,5.32087 -1.7249,7.16397 0.518,0.51796 5.168,0.76796 10.3334,0.55556 8.5231,-0.35049 9.4302,-0.65769 9.8092,-3.32222 z m 168.1995,1.02862 c 2.0073,-3.7507 -1.5739,-6.75926 -8.0457,-6.75926 H 1204 v -14 -14 h 5.2381 c 6.4718,0 10.053,-3.00856 8.0457,-6.75927 -1.2483,-2.33239 -2.942,-2.57407 -18.0392,-2.57407 -14.1956,0 -16.7855,0.32284 -17.4987,2.18123 -1.4292,3.72447 1.5013,6.45893 7.3899,6.89544 l 5.5308,0.41 v 13.84667 13.84666 l -5.5308,0.41 c -5.8886,0.43651 -8.8191,3.17098 -7.3899,6.89544 0.7132,1.85839 3.3031,2.18123 17.4987,2.18123 15.0972,0 16.7909,-0.24168 18.0392,-2.57407 z m 29.1304,-1.00238 c 0.265,-1.86152 -0.5756,-3.43952 -2.3333,-4.38024 -2.168,-1.16028 -2.7476,-2.77439 -2.7476,-7.6519 0,-7.5112 2.7606,-11.05808 8.6067,-11.05808 5.8384,0 7.3933,2.12506 7.3933,10.10404 0,5.56818 -0.5502,7.26936 -2.8436,8.79215 -2.1093,1.40048 -2.6026,2.64771 -1.9102,4.82929 0.8338,2.62688 1.8405,2.94119 9.4205,2.94119 7.58,0 8.5867,-0.31431 9.4204,-2.94119 0.6924,-2.18158 0.1991,-3.42881 -1.9101,-4.82929 -2.4131,-1.60224 -2.8437,-3.18896 -2.8437,-10.4798 0,-4.72544 -0.6177,-9.74604 -1.3728,-11.15691 -2.9585,-5.52798 -15.1645,-8.5398 -21.3006,-5.25588 -1.6698,0.89371 -2.772,0.89371 -3.3243,0 -1.0785,-1.74492 -8.1319,-1.71818 -11.4232,0.0433 -3.0561,1.63557 -3.4238,6.3793 -0.5791,7.47092 1.4876,0.57084 2,2.93936 2,9.24458 0,7.1125 -0.4292,8.70684 -2.6666,9.90426 -2.6252,1.40494 -3.568,5.32086 -1.7249,7.16397 0.5179,0.51796 5.1679,0.76796 10.3333,0.55556 8.4962,-0.34937 9.4311,-0.66363 9.8058,-3.29599 z m 165.1731,1.39522 c 1.5589,-4.06233 -1.4819,-6.46312 -8.7247,-6.88845 L 1396,663.86066 v -5.24474 c 0,-4.65601 0.6086,-5.64749 5.4218,-8.8328 4.9892,-3.30161 5.7927,-3.45404 10.0647,-1.90926 3.6267,1.31144 5.0661,1.32732 6.578,0.0725 2.8505,-2.36573 2.3729,-4.74207 -1.5777,-7.84963 -4.2683,-3.35749 -11.9956,-3.62578 -16.3611,-0.56806 -2.9101,2.03828 -3.2223,2.03828 -4.3629,0 -1.6612,-2.96826 -13.3942,-3.04019 -16.3343,-0.10014 -2.3901,2.39023 -2.3691,2.30618 -1.2859,5.12904 0.4451,1.15999 2.2451,2.10906 4,2.10906 3.0347,0 3.1907,0.41928 3.1907,8.5781 0,8.2837 -0.1213,8.59259 -3.5321,9 -4.068,0.4859 -6.6048,3.73776 -5.3886,6.90734 0.7135,1.85924 3.3096,2.18122 17.5874,2.18122 14.2777,0 16.8738,-0.32198 17.5873,-2.18122 z m 32.1603,-1.39522 c 0.2649,-1.86152 -0.5756,-3.43952 -2.3334,-4.38024 -2.168,-1.16028 -2.7476,-2.77439 -2.7476,-7.6519 0,-7.5112 2.7606,-11.05808 8.6067,-11.05808 5.8384,0 7.3933,2.12506 7.3933,10.10404 0,5.56818 -0.5502,7.26936 -2.8436,8.79215 -2.1093,1.40048 -2.6026,2.64771 -1.9101,4.82929 0.8337,2.62688 1.8404,2.94119 9.4204,2.94119 7.58,0 8.5867,-0.31431 9.4204,-2.94119 0.6925,-2.18158 0.1992,-3.42881 -1.9101,-4.82929 -2.4131,-1.60224 -2.8436,-3.18896 -2.8436,-10.4798 0,-4.72544 -0.6178,-9.74604 -1.3728,-11.15691 -2.9586,-5.52798 -15.1646,-8.5398 -21.3007,-5.25588 -1.6699,0.89371 -2.772,0.89371 -3.3243,0 -1.0784,-1.74492 -8.1318,-1.71818 -11.4232,0.0433 -3.0561,1.63557 -3.4237,6.3793 -0.579,7.47092 1.4876,0.57084 2,2.93936 2,9.24458 0,7.1125 -0.4294,8.70684 -2.6667,9.90426 -2.6252,1.40494 -3.568,5.32086 -1.7249,7.16397 0.518,0.51796 5.168,0.76796 10.3333,0.55556 8.4961,-0.34937 9.4311,-0.66363 9.8059,-3.29599 z M 357.33334,529.33335 v -24 h 28 28 v -24 -24 h -42 -42 v 24 24 h -42 -42 v -24 -24 h -14 -14 v -72.00001 -72 h 14 14 v -24 -24 h 42 42 v 24 24 h 42 42 v -24 -24 h -42 -42 v -24 -24 h -42 -42 v 24 24 h -42 -42 v 24 24 h -14 -14 v 72 72.00001 h 14 14 v 24 24 h 28 28 v 24 24 h 70 70 z m 139.99999,-24 v -48 h 14 14 v -24.00001 -24 h 28 28 v 72.00001 72 h 42 42 v -48 -48 h -14 -14 v -24.00001 -24 h -28 -28 v -24 -24 h -28 -28 v -48 -48 h -42 -41.99999 v 144 144.00001 h 27.99999 28 z m 336,24 v -24 h -28 -28 v -48 -48.00001 h 14 14 v -24 -24 h 28 28 v 96.00001 96 h 56 56 v -24 -24 h -14 -14 v -72.00001 -72 h -42 -42 v -24 -24 h -42 -42 v 24 24 h -28 -28 v 24 24 h -14 -14 v 48.00001 48 h 28 28 v 24 24 h 42 42 z m 335.99997,0 v -24 h 42 42 v -24 -24 h 14 14 v -24.00001 -24 h -14 -14 v -24 -24 h -42 -42 v -24 -24 h -42 -42 v 24 24 h -28 -28 v 24 24 h -14 -14 v 24 24.00001 h 14 14 v 24 24 h 28 28 v 24 24 h 42 42 z m -56,-48 v -24 h -14 -14 v -24.00001 -24 h 14 14 v -24 -24 h 28 28 v 24 24 h 14 14 v 24 24.00001 h -14 -14 v 24 24 h -28 -28 z m 280,24 v -48 h 28 28 v 24 24 h 14 14 v 24 24 h 42 42 v -24 -24 h -14 -14 v -24 -24 h -42 -42 v -24.00001 -24 h 42 42 v -24 -24 h 14 14 v -24 -24 h -42 -42 v 24 24 h -14 -14 v 24 24 h -14 -14 v -24 -24 h -14 -14 v -24 -24 h -42 -42 v 24 24 h 28 28 v 24 24 h 14 14 v 24 24.00001 h -28 -28 v 24 24 h -14 -14 v 24 24 h 42 42 z m 213.6925,34.33333 c 1.0146,-2.90873 -0.543,-5 -3.7241,-5 -1.6937,0 -3.3411,0.75 -3.6609,1.66667 -1.0146,2.90873 0.543,5 3.7241,5 1.6937,0 3.3411,-0.75 3.6609,-1.66667 z m 59.6408,0.33333 c 0,-0.73333 -2.1,-1.33333 -4.6666,-1.33333 -4.4256,0 -4.6667,-0.23605 -4.6667,-4.56989 0,-5.80787 5.2569,-10.50139 10.3347,-9.22698 2.5026,0.62815 3.1921,0.37227 2.7346,-1.01496 -0.8992,-2.72734 -6.0784,-3.04064 -9.813,-0.5936 -2.8714,1.88136 -3.2563,1.89352 -3.2563,0.1028 0,-1.37618 -1.3147,-2.03073 -4.0787,-2.03073 -2.3796,0 -3.7354,0.55544 -3.2546,1.33333 0.4532,0.73334 1.6886,1.33334 2.7453,1.33334 1.44,0 1.9213,1.83718 1.9213,7.33333 0,6.44444 -0.3232,7.33333 -2.6666,7.33333 -1.4667,0 -2.6667,0.6 -2.6667,1.33334 0,0.75213 3.7777,1.33333 8.6667,1.33333 4.8889,0 8.6666,-0.5812 8.6666,-1.33333 z m 28.7274,-1.9394 c 1.8,-1.8 3.2726,-4.82726 3.2726,-6.72726 0,-5.11736 -5.5336,-10 -11.3333,-10 -5.7997,0 -11.3333,4.88264 -11.3333,10 0,8.88169 12.7996,13.32157 19.394,6.72726 z m -13.2988,-1.48917 c -4.5288,-4.52884 -1.1778,-12.57143 5.2381,-12.57143 4.0227,0 7.3333,3.31071 7.3333,7.33334 0,4.02262 -3.3106,7.33333 -7.3333,7.33333 -1.7285,0 -4.0857,-0.94285 -5.2381,-2.09524 z"
       id="path827" />
  </g>
</svg>
